Coordinates
version=1
nRows=4
nColumns=63
inDegrees=yes

Units are S.I. units (second, meters, Newtons, ...)
If the header above contains a line with 'inDegrees', this indicates whether rotational values are in degrees (yes) or radians (no).

endheader
time	pelvis_tilt	pelvis_list	pelvis_rotation	pelvis_tx	pelvis_ty	pelvis_tz	hip_flexion_r	hip_adduction_r	hip_rotation_r	knee_angle_r	knee_angle_r_beta	ankle_angle_r	subtalar_angle_r	mtp_angle_r	hip_flexion_l	hip_adduction_l	hip_rotation_l	knee_angle_l	knee_angle_l_beta	ankle_angle_l	subtalar_angle_l	mtp_angle_l	L5_S1_Flex_Ext	L5_S1_Lat_Bending	L5_S1_axial_rotation	L4_L5_Flex_Ext	L4_L5_Lat_Bending	L4_L5_axial_rotation	L3_L4_Flex_Ext	L3_L4_Lat_Bending	L3_L4_axial_rotation	L2_L3_Flex_Ext	L2_L3_Lat_Bending	L2_L3_axial_rotation	L1_L2_Flex_Ext	L1_L2_Lat_Bending	L1_L2_axial_rotation	L1_T12_Flex_Ext	L1_T12_Lat_Bending	L1_T12_axial_rotation	Abs_r3	Abs_r2	Abs_r1	Abs_t1	Abs_t2	neck_flexion	neck_bending	neck_rotation	arm_flex_r	arm_add_r	arm_rot_r	elbow_flex_r	pro_sup_r	wrist_flex_r	wrist_dev_r	arm_flex_l	arm_add_l	arm_rot_l	elbow_flex_l	pro_sup_l	wrist_flex_l	wrist_dev_l
      1.26666667	    -14.79810441	     16.41846354	    -63.49432607	     -0.03821604	      0.94217272	     -0.80891460	     37.79373151	      5.10628530	    -31.26368399	     17.21406357	      0.30044209	    -14.75078031	    -15.20311068	      0.00000000	     22.68089427	     -6.35141105	     15.91716081	     35.34295137	      0.61685087	     14.06408219	    -14.23144332	      0.00000000	     -0.02700466	     -0.96355497	     -1.23092968	     -0.05015035	     -1.28152811	     -1.30786278	     -0.04436595	     -2.34278755	     -1.30786278	     -0.03086362	     -2.34278755	     -1.07706347	     -0.02507652	     -1.96488129	     -1.00013036	     -0.01543046	     -1.49254665	     -0.92319726	     -0.19289155	    -10.89992653	     -6.84606159	      0.00000000	      0.00000000	    -19.95461934	      9.96096361	     -9.01003128	    -34.54813021	    -39.21786080	    -81.15200938	    121.30329744	     89.99559364	      0.00000000	      0.00000000	     -1.44854490	    -47.73505944	    -11.07189425	     53.53873465	     89.99559364	      0.00000000	      0.00000000
      1.28333333	    -13.59683181	     15.21132369	    -64.50834225	     -0.02969382	      0.94033159	     -0.79398351	     35.74739427	      4.87219213	    -31.21913248	     19.68542804	      0.34357553	    -12.40506963	    -15.62463918	      0.00000000	     19.10179691	     -6.01645728	     15.01028141	     34.80513929	      0.60746428	     15.38399016	    -14.61388571	      0.00000000	     -0.02775867	     -0.74785294	     -1.50600018	     -0.05155062	     -0.99464442	     -1.60012520	     -0.04560471	     -1.81832965	     -1.60012520	     -0.03172538	     -1.81832965	     -1.31775016	     -0.02577670	     -1.52502173	     -1.22362515	     -0.01586130	     -1.15842421	     -1.12950014	     -0.19827738	     -8.45986208	     -8.37592122	      0.00000000	      0.00000000	    -20.36475076	      8.04553490	     -7.24752006	    -31.67736145	    -41.93843756	    -77.50858848	    119.37239014	     89.99559364	      0.00000000	      0.00000000	     -8.81065475	    -46.67117929	    -18.11234213	     54.88969923	     89.99559364	      0.00000000	      0.00000000
      1.30000000	    -12.55230955	     13.89005766	    -65.85302654	     -0.02179594	      0.93921915	     -0.77933037	     33.52034438	      4.86132977	    -30.65609796	     21.49164857	      0.37510003	    -10.28092678	    -15.22436089	      0.00000000	     15.47446115	     -5.79885309	     14.26554180	     34.38618712	      0.60015218	     16.57069197	    -14.75865006	      0.00000000	     -0.02761470	     -0.50224202	     -1.69275208	     -0.05128326	     -0.66798189	     -1.79854908	     -0.04536819	     -1.22115125	     -1.79854908	     -0.03156084	     -1.22115125	     -1.48115807	     -0.02564301	     -1.02417193	     -1.37536106	     -0.01577904	     -0.77797289	     -1.26956406	     -0.19724906	     -5.68146218	     -9.41457924	      0.00000000	      0.00000000	    -21.23191954	      4.65357436	     -4.12502537	    -28.52130282	    -44.78004103	    -74.21749319	    117.16839994	     89.99559364	      0.00000000	      0.00000000	    -14.28588008	    -45.48840734	    -23.44442156	     54.60714549	     89.99559364	      0.00000000	      0.00000000
      1.31666667	    -11.06245581	     12.69006322	    -68.02301606	     -0.01608138	      0.93939088	     -0.76463150	     31.33171844	      4.67477471	    -28.74449343	     23.10029317	      0.40317617	     -8.09483480	    -14.26606871	      0.00000000	     11.78964333	     -5.16431630	     12.96118300	     34.03749859	      0.59406642	     17.31539903	    -14.61440755	      0.00000000	     -0.02670487	     -0.33119170	     -1.51012840	     -0.04959361	     -0.44048496	     -1.60451143	     -0.04387343	     -0.80525950	     -1.60451143	     -0.03052100	     -0.80525950	     -1.32136235	     -0.02479814	     -0.67536612	     -1.22697933	     -0.01525916	     -0.51301594	     -1.13259630	     -0.19075021	     -3.74650676	     -8.39888115	      0.00000000	      0.00000000	    -21.89657069	      3.64538100	     -3.40004279	    -26.68587425	    -46.28039634	    -72.61551894	    114.92660015	     89.99559364	      0.00000000	      0.00000000	    -16.75102663	    -45.71926425	    -25.32724823	     53.24137674	     89.99559364	      0.00000000	      0.00000000
